:SAMPLES-PER-SECOND 30
:FULLY-SPECIFIED
:DEGREES
294
root  7.41967 38.8129 3.16721 177.235 -76.618 -178.8
RightUpLeg  -12.5709 5.30244 -8.88941
RightLeg  24.1338 0.730027 0.135607
RightFoot  -6.57521 -0.471938 10.2407
RightToes  -5.28226e-011 1.30204e-014 -6.03759e-014
Spine  15.8915 -5.57511 -10.7065
Spine1  -8.3129 -6.91828 11.8685
HEad  -53.4213 -69.9218 53.6842
LeftShoulder1  0.894223 -3.06877 -5.84995
LeftArm  24.8466 -28.7867 -82.3884
LeftForeArm  152.275 -75.258 -140.461
LeftHand  -0.301569 -2.41146 4.69445
RightShoulder  0.564176 0.270973 7.41942
RightArm  26.644 -19.2573 9.80625
RightForeArm  30.372 -0.484255 18.1167
RightHand  0.286253 -10.2741 -7.76341
LeftUpLeg  -19.2109 -11.0444 23.5076
LeftLeg  131.966 -3.65518 3.63479
LeftFoot  -12.1803 0.0137542 -8.24662
LeftToes  -2.42178e-010 -1.66495e-011 -2.88221e-011
295
root  7.07005 39.0785 2.94551 179.968 -76.4328 178.066
RightUpLeg  -10.4809 5.72959 -9.28213
RightLeg  21.8527 0.184152 -0.138554
RightFoot  -6.08204 -0.487354 9.68747
RightToes  -5.28226e-011 1.30204e-014 -6.03759e-014
Spine  15.2511 -4.40059 -12.1135
Spine1  -9.11498 -6.30444 11.9752
HEad  -49.4921 -67.2805 49.6762
LeftShoulder1  1.00334 -3.25589 -7.24328
LeftArm  23.9516 -20.2226 -77.2385
LeftForeArm  138.591 -78.5548 -124.725
LeftHand  -0.356489 -3.04902 5.13858
RightShoulder  0.565224 0.175896 7.88006
RightArm  27.1647 -18.0367 12.4886
RightForeArm  30.0398 -0.128699 18.1579
RightHand  0.308187 -10.2338 -8.35353
LeftUpLeg  -19.578 -9.19828 21.8774
LeftLeg  116.011 -4.74383 7.974
LeftFoot  -12.3433 -0.0109765 -9.12047
LeftToes  -2.42178e-010 -1.66495e-011 -2.88221e-011
296
root  6.90114 39.2429 2.89318 -179.109 -75.9115 176.697
RightUpLeg  -8.97291 6.31234 -9.47696
RightLeg  20.0767 0.368148 -0.0641891
RightFoot  -5.54129 -0.519347 9.48049
RightToes  -5.28226e-011 1.30204e-014 -6.03759e-014
Spine  14.8139 -3.07778 -11.6259
Spine1  -9.33402 -4.9627 10.4586
HEad  -50.1196 -66.8391 49.5023
LeftShoulder1  1.08403 -3.30392 -8.44696
LeftArm  25.253 -12.0831 -72.6721
LeftForeArm  97.6475 -80.4638 -80.6922
LeftHand  -0.420912 -4.3869 5.29172
RightShoulder  0.601708 0.251675 8.62853
RightArm  25.4862 -17.1714 16.9458
RightForeArm  29.6177 -0.357649 18.1605
RightHand  0.293668 -9.76114 -8.78486
LeftUpLeg  -16.8361 -7.20698 20.7924
LeftLeg  94.6186 -1.09941 5.11733
LeftFoot  -12.8545 -0.110053 -14.5271
LeftToes  -2.42178e-010 -1.66495e-011 -2.88221e-011
297
root  6.83069 39.3332 2.97211 -179.606 -76.1707 176.894
RightUpLeg  -7.67061 6.09197 -9.51866
RightLeg  18.5157 0.672833 -0.00298289
RightFoot  -5.33828 -0.559142 9.94372
RightToes  -5.28226e-011 1.30204e-014 -6.03759e-014
Spine  14.2253 -2.15552 -9.70039
Spine1  -9.01094 -3.66882 7.79723
HEad  -50.5722 -68.76 49.3967
LeftShoulder1  1.16937 -3.55755 -9.1622
LeftArm  27.5498 -4.95373 -68.9421
LeftForeArm  53.7746 -73.4263 -33.4121
LeftHand  -0.437906 -5.82774 4.85579
RightShoulder  0.668849 0.343395 10.1539
RightArm  20.5088 -15.2499 22.4132
RightForeArm  31.8841 -1.40255 17.9328
RightHand  0.250229 -9.36948 -8.37289
LeftUpLeg  -12.9288 -5.87594 20.0182
LeftLeg  70.6946 -0.967921 -2.03574
LeftFoot  -12.1755 -0.0865321 -21.7816
LeftToes  -2.42178e-010 -1.66495e-011 -2.88221e-011
298
root  6.76448 39.299 3.17602 -178.602 -77.5 176.099
RightUpLeg  -7.28929 5.01448 -10.1525
RightLeg  17.9779 0.347928 -0.235007
RightFoot  -5.48621 -0.593994 10.8611
RightToes  -5.28226e-011 1.30204e-014 -6.03759e-014
Spine  13.4048 -1.85461 -8.05031
Spine1  -9.01413 -2.98446 5.36237
HEad  -39.9465 -67.8213 39.63
LeftShoulder1  1.27805 -3.90686 -9.92713
LeftArm  30.2634 0.965445 -66.0244
LeftForeArm  38.4732 -58.3851 -14.8544
LeftHand  -0.460056 -6.41174 4.8439
RightShoulder  0.778152 0.504424 12.4203
RightArm  14.0458 -11.656 28.1505
RightForeArm  35.4143 -3.11779 17.5696
RightHand  0.217058 -8.93275 -8.26908
LeftUpLeg  -9.00578 -4.66372 18.8137
LeftLeg  46.7263 -5.08121 -5.50064
LeftFoot  -11.1954 0.0993031 -26.1789
LeftToes  -2.42178e-010 -1.66495e-011 -2.88221e-011
299
root  6.72738 39.0585 3.6556 -177.48 -79.7294 175.739
RightUpLeg  -8.4522 3.70133 -11.2517
RightLeg  19.6417 -0.443386 -0.394339
RightFoot  -5.89817 -0.602889 11.8225
RightToes  -5.28226e-011 1.30204e-014 -6.03759e-014
Spine  12.4958 -2.04979 -6.45427
Spine1  -9.23818 -2.86231 4.6286
HEad  -22.401 -55.8652 22.4387
LeftShoulder1  1.48562 -4.39774 -11.6393
LeftArm  36.4865 5.19626 -63.624
LeftForeArm  28.3554 -39.3257 -6.78801
LeftHand  -0.619277 -5.16727 7.19644
RightShoulder  0.86083 0.606372 14.1336
RightArm  17.3726 -7.46278 34.5877
RightForeArm  29.9943 -1.01809 17.3766
RightHand  0.127075 -7.37415 -9.17976
LeftUpLeg  -6.49993 -3.44318 17.2569
LeftLeg  27.8109 -8.24468 -4.44534
LeftFoot  -9.77183 0.41993 -26.3773
LeftToes  -2.42178e-010 -1.66495e-011 -2.88221e-011
